<?xml version="1.0" standalone="no"?>
<!DOCTYPE svg PUBLIC "-//W3C//DTD SVG 20010904//EN"
 "http://www.w3.org/TR/2001/REC-SVG-20010904/DTD/svg10.dtd">
<svg version="1.0" xmlns="http://www.w3.org/2000/svg"
 width="1087.000000pt" height="1087.000000pt" viewBox="0 0 1087.000000 1087.000000"
 preserveAspectRatio="xMidYMid meet">

<defs>
  <linearGradient id="tlhGradient" x1="0%" y1="0%" x2="100%" y2="100%">
    <stop offset="0%" style="stop-color:#667eea;stop-opacity:1" />
    <stop offset="100%" style="stop-color:#764ba2;stop-opacity:1" />
  </linearGradient>
</defs>

<g transform="translate(0.000000,1087.000000) scale(0.100000,-0.100000)"
fill="url(#tlhGradient)" stroke="none">
<path d="M2132 8758 c-9 -9 -12 -189 -12 -750 0 -406 1 -739 3 -740 1 -2 578
-5 1282 -8 l1280 -5 3 -2402 c2 -2127 4 -2403 17 -2403 8 0 15 -4 15 -10 0 -5
11 -10 24 -10 14 0 28 -4 31 -10 3 -5 17 -10 31 -10 13 0 24 -4 24 -10 0 -5
11 -10 24 -10 14 0 28 -4 31 -10 3 -6 17 -10 31 -10 13 0 24 -4 24 -10 0 -5
14 -10 30 -10 17 0 30 -4 30 -10 0 -5 11 -10 24 -10 14 0 28 -4 31 -10 3 -5
17 -10 31 -10 13 0 24 -4 24 -10 0 -5 11 -10 24 -10 14 0 28 -4 31 -10 3 -5
17 -10 31 -10 13 0 24 -4 24 -10 0 -5 14 -10 30 -10 17 0 30 -4 30 -10 0 -5
11 -10 24 -10 14 0 28 -4 31 -10 3 -5 17 -10 31 -10 13 0 24 -4 24 -10 0 -5
11 -10 24 -10 13 0 26 -6 29 -12 4 -10 7 -10 18 0 7 6 23 12 35 12 13 0 26 5
29 10 3 6 17 10 31 10 13 0 24 5 24 10 0 6 11 10 24 10 14 0 28 4 31 10 3 6
17 10 31 10 13 0 24 5 24 10 0 6 11 10 24 10 14 0 28 5 31 10 3 6 17 10 30 10
13 0 27 5 30 10 3 6 17 10 31 10 13 0 24 5 24 10 0 6 11 10 24 10 14 0 28 5
31 10 3 6 17 10 31 10 13 0 24 5 24 10 0 6 11 10 24 10 14 0 28 5 31 10 3 6
17 10 30 10 13 0 27 5 30 10 3 6 17 10 31 10 13 0 24 5 24 10 0 6 10 10 23 10
13 0 28 5 35 12 9 9 12 156 12 598 l0 585 27 13 c15 6 35 12 45 12 10 0 18 5
18 10 0 6 14 10 30 10 17 0 30 5 30 10 0 6 9 10 20 10 11 0 29 5 40 10 11 6
29 15 40 20 11 5 29 10 39 10 11 0 23 4 26 10 3 6 17 10 31 10 13 0 24 5 24
10 0 6 11 10 24 10 14 0 28 5 31 10 3 5 15 10 26 10 10 0 28 4 39 10 11 6 29
15 40 20 11 6 29 10 39 10 11 0 23 5 26 10 3 6 15 10 26 10 10 0 28 5 39 10
11 6 29 15 40 20 11 6 27 10 35 10 8 0 24 5 35 10 11 6 29 15 40 20 11 6 29
10 39 10 11 0 23 5 26 10 3 6 15 10 26 10 10 0 27 4 37 9 28 14 65 29 90 36
l22 6 0 -585 0 -586 24 0 c14 0 28 5 31 10 3 6 15 10 26 10 10 0 28 4 39 10
11 5 29 15 40 20 11 6 29 10 39 10 11 0 23 5 26 10 3 6 17 10 31 10 13 0 24 5
24 10 0 6 11 10 24 10 14 0 28 5 31 10 3 6 15 10 26 10 10 0 29 5 42 12 48 24
57 28 76 28 11 0 23 5 26 10 3 6 17 10 31 10 13 0 24 5 24 10 0 6 11 10 24 10
14 0 28 5 31 10 3 6 15 10 26 10 10 0 28 5 39 10 11 6 29 15 40 20 11 6 29 10
39 10 11 0 23 5 26 10 3 6 17 10 31 10 13 0 24 5 24 10 0 6 11 10 24 10 14 0
28 5 31 10 3 6 15 10 26 10 19 0 28 4 76 28 13 7 32 12 42 12 11 0 23 5 26 10
3 6 17 10 31 10 13 0 24 5 24 10 0 6 11 10 24 10 14 0 28 5 31 10 3 6 17 10
31 10 13 0 24 5 24 10 0 6 11 10 24 10 14 0 28 5 31 10 3 6 15 10 26 10 10 0
28 5 39 10 11 5 29 14 40 20 11 5 27 10 35 10 18 0 57 20 67 35 9 12 11 3226
2 3249 -6 14 -81 16 -750 16 l-744 0 0 -528 c0 -397 -3 -531 -12 -540 -7 -7
-22 -12 -34 -12 -13 0 -26 -4 -29 -10 -3 -5 -15 -10 -26 -10 -10 0 -28 -4 -39
-10 -11 -5 -29 -14 -40 -20 -11 -5 -29 -10 -39 -10 -11 0 -23 -4 -26 -10 -3
-5 -17 -10 -31 -10 -13 0 -24 -4 -24 -10 0 -5 -11 -10 -24 -10 -14 0 -28 -4
-31 -10 -3 -5 -15 -10 -26 -10 -10 0 -28 -4 -39 -10 -11 -5 -29 -14 -40 -20
-11 -5 -29 -10 -39 -10 -11 0 -23 -4 -26 -10 -3 -5 -17 -10 -30 -10 -13 0 -27
-4 -30 -10 -3 -5 -17 -10 -31 -10 -13 0 -24 -4 -24 -10 0 -5 -11 -10 -24 -10
-14 0 -28 -4 -31 -10 -3 -5 -17 -10 -31 -10 -13 0 -24 -4 -24 -10 0 -5 -11
-10 -24 -10 -14 0 -28 -4 -31 -10 -3 -5 -17 -10 -30 -10 -13 0 -27 -4 -30 -10
-3 -5 -17 -10 -31 -10 -13 0 -24 -4 -24 -10 0 -5 -10 -10 -23 -10 -13 0 -27
-3 -31 -7 -3 -4 -22 -12 -41 -19 l-35 -12 0 1028 0 1028 23 5 c12 3 466 6
1010 7 543 0 993 3 1000 6 6 2 36 80 66 172 30 92 63 185 73 206 10 22 18 46
18 53 0 7 4 21 10 31 5 9 37 100 71 202 33 102 65 189 70 194 5 6 9 20 9 32 0
13 5 26 10 29 6 3 10 15 10 26 0 10 4 27 10 37 5 9 34 92 64 183 58 175 81
239 99 277 8 17 8 28 0 40 -9 16 -228 17 -3310 20 -2558 1 -3302 -1 -3311 -10z"/>
<path d="M2132 6618 c-9 -9 -12 -383 -12 -1620 l0 -1607 22 -21 c12 -11 30
-20 39 -20 10 0 21 -4 24 -10 3 -5 17 -10 30 -10 13 0 27 -4 30 -10 3 -5 15
-10 26 -10 10 0 28 -4 39 -10 11 -5 29 -14 40 -20 11 -6 27 -10 35 -10 8 0 24
-5 35 -10 11 -5 29 -14 40 -20 11 -5 29 -10 39 -10 11 0 23 -4 26 -10 3 -6 15
-10 26 -10 19 0 28 -4 76 -28 13 -7 30 -12 38 -12 15 0 25 -4 72 -28 13 -7 32
-12 42 -12 11 0 23 -4 26 -10 3 -5 17 -10 31 -10 13 0 24 -4 24 -10 0 -5 11
-10 24 -10 14 0 28 -4 31 -10 3 -5 15 -10 26 -10 10 0 28 -5 39 -10 11 -5 29
-14 40 -20 11 -5 29 -10 39 -10 11 0 23 -4 26 -10 3 -5 17 -10 31 -10 13 0 24
-4 24 -10 0 -5 11 -10 24 -10 14 0 28 -5 31 -10 3 -5 15 -10 26 -10 10 0 28
-4 39 -10 11 -5 29 -14 40 -20 11 -5 29 -10 39 -10 11 0 23 -5 26 -10 3 -5 17
-10 31 -10 13 0 24 -4 24 -10 0 -5 11 -10 24 -10 14 0 28 -4 31 -10 3 -5 15
-10 26 -10 10 0 28 -5 39 -10 11 -6 29 -15 40 -20 11 -5 29 -10 39 -10 11 0
23 -4 26 -10 3 -5 17 -10 31 -10 13 0 24 -4 24 -10 0 -5 11 -10 24 -10 14 0
28 -4 31 -10 3 -5 15 -10 26 -10 10 0 28 -5 39 -10 11 -6 29 -15 40 -20 11 -5
29 -10 39 -10 11 0 23 -4 26 -10 3 -5 17 -10 31 -10 13 0 24 -4 24 -10 0 -5
11 -10 24 -10 14 0 28 -5 31 -10 3 -5 17 -10 30 -10 13 0 27 -5 30 -10 3 -6
17 -10 31 -10 13 0 24 -4 24 -10 0 -5 10 -10 23 -10 13 0 27 -4 33 -9 5 -4 24
-11 41 -14 l33 -6 0 792 0 792 -27 13 c-15 6 -33 12 -40 12 -13 0 -24 5 -70
28 -13 7 -32 12 -43 12 -11 0 -20 5 -20 10 0 6 -13 10 -30 10 -16 0 -30 5 -30
10 0 6 -11 10 -24 10 -14 0 -28 5 -31 10 -3 6 -15 10 -26 10 -10 0 -28 4 -39
10 -11 6 -29 15 -40 20 -11 6 -29 10 -39 10 -11 0 -23 5 -26 10 -3 6 -17 10
-31 10 -13 0 -24 5 -24 10 0 6 -10 10 -23 10 -13 0 -27 4 -32 9 -6 5 -21 11
-35 13 l-25 3 -3 1108 -2 1107 -748 0 c-568 0 -751 -3 -760 -12z"/>
</g>
</svg>
